<svg xmlns="http://www.w3.org/2000/svg" viewBox="0 0 32 32" fill="none" role="img" aria-label="Maintenance Copilot">
  <defs>
    <linearGradient id="mc-body" x1="0" y1="4" x2="0" y2="28" gradientUnits="userSpaceOnUse">
      <stop offset="0%"  stop-color="#F8FAFC"/>
      <stop offset="100%" stop-color="#E2E8F0"/>
    </linearGradient>
  </defs>

  <!-- Aircraft fuselage, top-down silhouette -->
  <path d="M16 3 C17.1 3 17.8 4.4 17.8 6.4 L17.8 12.5 L27 18 L27 20 L17.8 17.4 L17.8 23.5 L21 26 L21 27.5 L16 26 L11 27.5 L11 26 L14.2 23.5 L14.2 17.4 L5 20 L5 18 L14.2 12.5 L14.2 6.4 C14.2 4.4 14.9 3 16 3 Z"
        fill="url(#mc-body)" stroke="#0F172A" stroke-width="1.3" stroke-linejoin="round"/>

  <!-- Center seam -->
  <line x1="16" y1="6" x2="16" y2="23" stroke="#0F172A" stroke-width="0.8" stroke-linecap="round"/>

  <!-- Wrench accent — the "maintenance" signature -->
  <path d="M23.5 22.5 a2.6 2.6 0 0 0 3.4 3.4 L29 28 l1.4-1.4 -2.1-2.1 a2.6 2.6 0 0 0 -3.4-3.4 l1.3 1.3 -0.7 1.6 -1.6 0.7 Z"
        fill="#F58A6B" stroke="#0F172A" stroke-width="0.9" stroke-linejoin="round"/>
</svg>
